:SAMPLES-PER-SECOND 30
:FULLY-SPECIFIED
:DEGREES
200
root  33.6031 39.6425 3.81236 -1.25925 86.4643 3.71388
RightUpLeg  3.18015 -13.1764 -4.8727
RightLeg  19.6626 3.17498 1.81891
RightFoot  -14.4691 -0.131853 -1.23466
RightToes  -2.9104e-010 0 -3.6325e-017
Spine  9.4416 0.379141 7.90232
Spine1  13.6421 1.99793 -2.89354
HEad  -25.4745 33.9398 -17.6778
LeftShoulder1  9.08117 -14.0822 -45
LeftArm  -12.1107 12.8051 -32.2412
LeftForeArm  30.4233 -32.5063 -5.44169
LeftHand  -0.244104 0.0205437 5.32207
RightShoulder  6.44988 11.3725 37.3335
RightArm  8.99305 8.6675 36.8443
RightForeArm  -2.97884 18.164 6.52003
RightHand  -0.86158 1.34516 -14.9506
LeftUpLeg  -13.3007 7.4193 4.52388
LeftLeg  3.19139 14.0265 -3.79005
LeftFoot  6.73984 0.632542 -4.22937
LeftToes  1.09107e-011 -5.80176e-011 5.60941e-012
201
root  32.8959 39.8258 3.89363 13.2369 87.4687 18.2523
RightUpLeg  2.88975 -13.3274 -5.44666
RightLeg  18.2534 2.19764 2.27949
RightFoot  -12.9673 -0.109452 -1.5075
RightToes  -2.9104e-010 0 -3.6325e-017
Spine  9.22865 0.376976 7.74511
Spine1  13.444 1.96114 -2.75854
HEad  -23.3502 32.9412 -15.0452
LeftShoulder1  8.96052 -14.0192 -44.5424
LeftArm  -10.057 12.3842 -32.9289
LeftForeArm  29.6264 -29.6834 -4.81635
LeftHand  -0.244104 0.0205437 5.32207
RightShoulder  6.28183 11.1637 36.8218
RightArm  10.3448 7.52099 36.7523
RightForeArm  -4.36396 20.8042 5.56233
RightHand  -0.819468 0.99642 -14.9809
LeftUpLeg  -14.0509 12.147 1.73072
LeftLeg  9.23355 10.6663 -0.706669
LeftFoot  4.53482 0.378792 -2.93391
LeftToes  1.09107e-011 -5.80176e-011 5.60941e-012
202
root  32.2478 39.954 3.90768 27.7151 87.9809 32.8693
RightUpLeg  2.7291 -12.8334 -5.92366
RightLeg  16.9378 1.08917 2.94962
RightFoot  -11.7549 -0.0850868 -1.54459
RightToes  -2.9104e-010 0 -3.6325e-017
Spine  9.09977 0.433834 8.46465
Spine1  13.2262 2.27404 -3.21114
HEad  -21.6214 31.6686 -12.8902
LeftShoulder1  8.86602 -13.9573 -44.214
LeftArm  -8.71852 12.2398 -33.4448
LeftForeArm  29.3297 -27.7779 -4.40304
LeftHand  -0.244104 0.0205437 5.32207
RightShoulder  6.12858 10.9552 36.3931
RightArm  10.0494 5.66096 36.624
RightForeArm  -5.63615 23.2483 5.29411
RightHand  -0.783673 0.610345 -15.2205
LeftUpLeg  -14.2278 15.2266 -0.175714
LeftLeg  15.6944 6.28009 2.36203
LeftFoot  2.06941 0.348001 -3.07079
LeftToes  1.09107e-011 -5.80176e-011 5.60941e-012
203
root  31.6242 40.0341 3.86847 36.1828 88.0958 41.496
RightUpLeg  2.29102 -12.3834 -6.20438
RightLeg  16.1591 0.464686 3.45235
RightFoot  -10.6553 -0.0625594 -1.58892
RightToes  -2.9104e-010 0 -3.6325e-017
Spine  8.96812 0.483018 9.34448
Spine1  13.2738 2.63535 -3.7143
HEad  -20.9375 30.2465 -11.7035
LeftShoulder1  8.8425 -13.9081 -44.2215
LeftArm  -8.27547 12.6023 -33.6773
LeftForeArm  29.0249 -27.0589 -4.26232
LeftHand  -0.244104 0.0205437 5.32207
RightShoulder  6.07896 10.8868 36.2531
RightArm  9.44241 3.94727 36.1509
RightForeArm  -6.18884 25.1295 5.68661
RightHand  -0.769012 0.468685 -15.2884
LeftUpLeg  -13.3254 11.726 0.376937
LeftLeg  22.0204 8.20923 3.99277
LeftFoot  -0.620037 0.299458 -3.14541
LeftToes  1.09107e-011 -5.80176e-011 5.60941e-012
204
root  31.0126 40.0773 3.79951 40.795 88.0331 46.081
RightUpLeg  1.3265 -12.3097 -6.33086
RightLeg  15.9578 0.378141 3.6399
RightFoot  -9.71435 -0.043723 -1.55811
RightToes  -2.9104e-010 0 -3.6325e-017
Spine  8.5631 0.487324 9.79092
Spine1  13.6177 2.80921 -3.91147
HEad  -20.9792 28.7479 -11.2646
LeftShoulder1  8.84573 -13.8337 -44.4377
LeftArm  -8.26851 13.2383 -33.7272
LeftForeArm  28.1216 -26.8243 -4.25921
LeftHand  -0.244104 0.0205437 5.32207
RightShoulder  6.0953 10.884 36.3719
RightArm  10.1206 2.76693 35.5729
RightForeArm  -6.34157 26.0513 5.9174
RightHand  -0.783723 0.621826 -15.1946
LeftUpLeg  -12.1821 9.20283 0.677631
LeftLeg  27.8786 10.0717 6.05991
LeftFoot  -2.71205 0.252219 -3.1346
LeftToes  1.09107e-011 -5.80176e-011 5.60941e-012
205
root  30.4155 40.0853 3.71061 43.0905 88.0055 48.1528
RightUpLeg  -0.0843509 -12.4888 -6.25837
RightLeg  16.2165 0.55324 3.60193
RightFoot  -8.99184 -0.03274 -1.37287
RightToes  -2.9104e-010 0 -3.6325e-017
Spine  7.88757 0.427291 9.84592
Spine1  14.0164 2.75036 -3.77673
HEad  -20.9262 27.4101 -11.0624
LeftShoulder1  8.84703 -13.7338 -44.7141
LeftArm  -8.29251 13.8869 -33.6712
LeftForeArm  26.921 -26.4086 -4.23249
LeftHand  -0.244104 0.0205437 5.32207
RightShoulder  6.11289 10.8359 36.6298
RightArm  11.9005 1.96675 35.1852
RightForeArm  -6.21997 25.7809 5.84891
RightHand  -0.810666 0.835006 -15.1897
LeftUpLeg  -10.7017 7.51795 0.93844
LeftLeg  32.802 10.9308 7.82325
LeftFoot  -4.11394 0.240523 -3.41992
LeftToes  1.09107e-011 -5.80176e-011 5.60941e-012
206
root  29.8284 40.0656 3.60011 42.2321 88.1512 47.1373
RightUpLeg  -1.51332 -12.7348 -5.96064
RightLeg  16.6752 0.723913 3.44543
RightFoot  -8.33304 -0.0237727 -1.2405
RightToes  -2.9104e-010 0 -3.6325e-017
Spine  7.30865 0.302452 9.75361
Spine1  14.2441 2.52197 -3.37871
HEad  -20.3771 26.2828 -10.7251
LeftShoulder1  8.85976 -13.6565 -44.9915
LeftArm  -7.99794 14.3987 -33.5571
LeftForeArm  26.1351 -25.6226 -4.10456
LeftHand  -0.244104 0.0205437 5.32207
RightShoulder  6.1222 10.7745 36.8713
RightArm  14.1583 1.05746 35.1045
RightForeArm  -6.45627 24.6338 5.58971
RightHand  -0.814645 0.846209 -15.2368
LeftUpLeg  -8.53505 6.45643 1.37056
LeftLeg  36.082 10.1398 8.18777
LeftFoot  -5.46657 0.201082 -3.25294
LeftToes  1.09107e-011 -5.80176e-011 5.60941e-012
207
root  29.238 40.0278 3.46737 38.4837 88.448 43.485
RightUpLeg  -2.65911 -12.906 -5.51071
RightLeg  17.0978 0.706616 3.16729
RightFoot  -7.62849 -0.0106634 -1.26399
RightToes  -2.9104e-010 0 -3.6325e-017
Spine  7.10707 0.159629 9.60927
Spine1  14.2861 2.23244 -2.82736
HEad  -19.7253 24.9769 -10.311
LeftShoulder1  8.87442 -13.6151 -45.1827
LeftArm  -7.20951 14.6436 -33.5182
LeftForeArm  25.9194 -24.5151 -3.88138
LeftHand  -0.244104 0.0205437 5.32207
RightShoulder  6.11661 10.7364 36.9446
RightArm  15.6973 -0.331028 35.3851
RightForeArm  -6.7455 23.0448 5.36433
RightHand  -0.790786 0.720197 -15.091
LeftUpLeg  -5.49781 5.80422 1.91792
LeftLeg  37.2384 8.62032 7.3316
LeftFoot  -6.67835 0.135633 -2.35245
LeftToes  1.09107e-011 -5.80176e-011 5.60941e-012
208
root  28.6369 39.9714 3.3121 32.2594 88.7986 37.4316
RightUpLeg  -3.77847 -13.0523 -4.96342
RightLeg  17.5692 0.615432 2.71602
RightFoot  -6.95546 0.0020379 -1.28468
RightToes  -2.9104e-010 0 -3.6325e-017
Spine  7.10185 0.0499201 9.44596
Spine1  14.2806 1.97165 -2.31793
HEad  -19.5566 23.1391 -10.1186
LeftShoulder1  8.85188 -13.5601 -45.2141
LeftArm  -6.43222 14.6857 -33.6163
LeftForeArm  25.9425 -23.4007 -3.67001
LeftHand  -0.244104 0.0205437 5.32207
RightShoulder  6.0715 10.659 36.8634
RightArm  15.0372 -2.14548 35.9882
RightForeArm  -5.89092 21.0993 5.61673
RightHand  -0.793228 0.829445 -14.8823
LeftUpLeg  -1.80971 5.36939 2.4952
LeftLeg  36.0929 7.24585 6.00089
LeftFoot  -7.21379 0.130897 -2.41332
LeftToes  1.09107e-011 -5.80176e-011 5.60941e-012
209
root  28.03 39.9057 3.12877 20.7836 89.1663 25.8652
RightUpLeg  -5.25088 -13.301 -4.30614
RightLeg  18.1263 0.655927 2.13117
RightFoot  -6.28747 0.0126666 -1.25159
RightToes  -2.9104e-010 0 -3.6325e-017
Spine  6.90822 -0.0415241 9.30245
Spine1  14.3082 1.72244 -2.03964
HEad  -20.0198 20.8249 -10.2579
LeftShoulder1  8.78189 -13.4446 -45.1603
LeftArm  -6.52646 14.9019 -33.6714
LeftForeArm  26.1977 -22.9821 -3.61191
LeftHand  -0.244104 0.0205437 5.32207
RightShoulder  6.02597 10.5535 36.8617
RightArm  12.644 -4.19905 36.568
RightForeArm  -4.53556 19.0195 6.32479
RightHand  -0.857928 1.31918 -14.9415
LeftUpLeg  2.07483 5.26962 3.12094
LeftLeg  32.5669 5.98482 4.45775
LeftFoot  -7.7144 0.193582 -4.74763
LeftToes  1.09107e-011 -5.80176e-011 5.60941e-012
210
root  27.4181 39.8538 2.9099 -14.9758 89.507 -10.3401
RightUpLeg  -6.97511 -13.589 -3.56588
RightLeg  18.383 0.70349 1.55567
RightFoot  -5.4229 0.0279811 -1.25013
RightToes  -2.9104e-010 0 -3.6325e-017
Spine  6.4914 -0.148378 9.17563
Spine1  14.2431 1.40659 -2.00622
HEad  -20.7612 18.3038 -10.3659
LeftShoulder1  8.6761 -13.2594 -45.1071
LeftArm  -7.54476 15.5624 -33.5058
LeftForeArm  27.0436 -23.7805 -3.68029
LeftHand  -0.244104 0.0205437 5.32207
RightShoulder  6.05915 10.5421 37.1244
RightArm  10.4136 -6.59945 36.6493
RightForeArm  -4.62054 17.6101 6.95127
RightHand  -0.926983 1.78995 -15.106
LeftUpLeg  5.69604 6.08294 3.85926
LeftLeg  26.916 4.60221 2.88485
LeftFoot  -9.53344 0.176396 -7.72024
LeftToes  1.09107e-011 -5.80176e-011 5.60941e-012
